<svg width="402" height="184" fill="none" xmlns="http://www.w3.org/2000/svg"><path d="M45.5 117.5c-9.833.333-29.8 3.8-31 15M5.5 148c-1.833 6.167-4.4 21.5 0 33.5M125 106l-15 10.5M399.5 152v13" stroke="#fff" stroke-width="5" stroke-linecap="round"/><circle cx="117.5" cy="6.5" r="6.5" fill="#F2B872"/><circle cx="136.5" cy="37.5" r="6.5" fill="#F2B872"/><circle cx="155.5" cy="68.5" r="6.5" fill="#F2B872"/><ellipse cx="57" cy="6.5" rx="6" ry="6.5" fill="#F2B872"/><ellipse cx="104" cy="37.5" rx="6" ry="6.5" fill="#F2B872"/><ellipse cx="123" cy="68.5" rx="6" ry="6.5" fill="#F2B872"/><circle cx="23.5" cy="6.5" r="6.5" fill="#F2B872"/><circle cx="42.5" cy="37.5" r="6.5" fill="#F2B872"/><circle cx="89.5" cy="68.5" r="6.5" fill="#F2B872"/><path d="M309 8c7.667.333 24.9 2.9 32.5 10.5M155 86l-18.5 10" stroke="#fff" stroke-width="5" stroke-linecap="round"/></svg>