<svg width="84" height="163" fill="none" xmlns="http://www.w3.org/2000/svg"><path d="m53.354 91.477-1-.022 1 .022ZM83.72 8.694a1 1 0 0 0-.026-1.414l-6.477-6.249a1 1 0 0 0-1.388 1.44l5.757 5.554-5.555 5.758a1 1 0 0 0 1.44 1.388l6.249-6.477ZM.975 162.99c1.549.039 3.23-.036 5.01-.243l-.231-1.987a33.8 33.8 0 0 1-4.73.231l-.049 1.999Zm14.715-2.534a48.719 48.719 0 0 0 8.992-4.283l-1.039-1.709a46.745 46.745 0 0 1-8.622 4.107l.67 1.885Zm16.941-10.26a54.684 54.684 0 0 0 6.68-7.362l-1.596-1.206a52.645 52.645 0 0 1-6.435 7.093l1.351 1.475Zm11.988-15.741a71.727 71.727 0 0 0 3.989-9.05l-1.88-.682a69.748 69.748 0 0 1-3.878 8.798l1.769.934Zm6.804-18.533a102.968 102.968 0 0 0 1.797-9.696l-1.981-.273a100.958 100.958 0 0 1-1.762 9.508l1.946.461Zm2.737-19.499c.092-1.605.157-3.246.194-4.924l-2-.043a138.86 138.86 0 0 1-.19 4.853l1.996.114Zm.194-4.924c.038-1.766.072-3.496.1-5.19l-1.999-.035c-.029 1.691-.062 3.418-.1 5.181l1.999.044Zm.23-15.526c.03-3.624.044-7.059.052-10.313l-2-.004a1702.65 1702.65 0 0 1-.052 10.3l2 .017Zm.067-20.63c.008-3.71.023-7.133.069-10.29l-2-.029c-.045 3.17-.061 6.602-.069 10.315l2 .004Zm.397-20.56c.227-3.93.584-7.266 1.145-10.1l-1.962-.39c-.585 2.96-.95 6.398-1.18 10.374l1.997.116Zm4.79-19.139c1.855-2.373 4.421-3.965 8.08-5l-.544-1.924c-3.961 1.12-6.935 2.907-9.111 5.693l1.576 1.231ZM77.88 9.19c1.6-.096 3.31-.156 5.138-.19L82.982 7c-1.85.033-3.588.095-5.221.193l.12 1.996Z" fill="#000"/></svg>