<svg width="111" height="56" fill="none" xmlns="http://www.w3.org/2000/svg"><path d="m60.887 23.518-.76-.651.76.65Zm49.674-13.8a1 1 0 0 0 .267-1.389L105.783.877a1 1 0 0 0-1.657 1.12l4.485 6.625-6.624 4.485a1 1 0 1 0 1.121 1.656l7.453-5.045ZM1.249 55.968c1.629-.417 3.488-.937 5.525-1.555l-.58-1.914A131.49 131.49 0 0 1 .75 54.03l.498 1.938Zm16.397-5.239a188.417 188.417 0 0 0 10.63-4.33l-.812-1.828a186.523 186.523 0 0 1-10.517 4.284l.699 1.874Zm20.959-9.362c3.412-1.827 6.746-3.799 9.882-5.907L47.37 33.8c-3.071 2.065-6.347 4.003-9.71 5.804l.944 1.763Zm18.994-13.021a50.729 50.729 0 0 0 4.046-4.177l-1.517-1.302a48.736 48.736 0 0 1-3.888 4.01l1.359 1.469Zm4.046-4.177a37.587 37.587 0 0 1 3.013-3.124l-1.357-1.47a39.594 39.594 0 0 0-3.173 3.292l1.517 1.302Zm10-8.268a46.242 46.242 0 0 1 7.917-3.633l-.665-1.886a48.254 48.254 0 0 0-8.26 3.791l1.007 1.728Zm16.375-5.86a64.336 64.336 0 0 1 8.712-.976l-.088-1.998c-2.852.126-5.885.439-8.984 1.006l.36 1.968Zm17.477-.772c1.62.154 3.073.364 4.314.603l.378-1.964a48.058 48.058 0 0 0-4.503-.63l-.189 1.99Z" fill="#000"/></svg>